<svg width="52" height="52" viewBox="0 0 52 52" fill="none" xmlns="http://www.w3.org/2000/svg">
<path d="M26 3.25C19.989 3.32294 14.2447 5.74322 9.99396 9.99396C5.74322 14.2447 3.32294 19.989 3.25 26C3.32294 32.011 5.74322 37.7553 9.99396 42.006C14.2447 46.2568 19.989 48.6771 26 48.75C32.011 48.6771 37.7553 46.2568 42.006 42.006C46.2568 37.7553 48.6771 32.011 48.75 26C48.6771 19.989 46.2568 14.2447 42.006 9.99396C37.7553 5.74322 32.011 3.32294 26 3.25Z" fill="white"/>
<path d="M26 3.25C19.989 3.32294 14.2447 5.74322 9.99396 9.99396C5.74322 14.2447 3.32294 19.989 3.25 26C3.32294 32.011 5.74322 37.7553 9.99396 42.006C14.2447 46.2568 19.989 48.6771 26 48.75C32.011 48.6771 37.7553 46.2568 42.006 42.006C46.2568 37.7553 48.6771 32.011 48.75 26C48.6771 19.989 46.2568 14.2447 42.006 9.99396C37.7553 5.74322 32.011 3.32294 26 3.25ZM39 27.625H27.625V39H24.375V27.625H13V24.375H24.375V13H27.625V24.375H39V27.625Z" fill="#008B94"/>
</svg>
