<svg width="25" height="20" viewBox="0 0 25 20" fill="none" xmlns="http://www.w3.org/2000/svg">
<path d="M7.83236 8.83119C7.87545 8.83237 7.91828 8.84231 7.95736 8.86048C7.99639 8.87865 8.03127 8.90451 8.0599 8.93666L12.224 13.6202C12.3472 13.7589 12.5086 13.8585 12.6878 13.9064C12.8669 13.9541 13.056 13.9485 13.2318 13.8898L16.2415 12.8869C16.2998 12.8674 16.3628 12.8653 16.4222 12.881C16.4816 12.8967 16.5354 12.9291 16.5765 12.9747L21.7572 18.674C21.8885 18.8179 21.8597 19.046 21.6869 19.1359C21.2219 19.3799 20.7129 19.529 20.1898 19.5744L18.2816 19.7404C14.3013 20.0866 10.3 20.0866 6.31967 19.7404L4.41244 19.5744C3.52537 19.4971 2.68929 19.1235 2.04037 18.5138C1.39183 17.9042 0.967615 17.0942 0.835292 16.214L0.79037 15.9103C0.783685 15.8624 0.788776 15.8136 0.804042 15.7677C0.819386 15.7217 0.84503 15.6791 0.879237 15.6447L7.59994 8.92396C7.6302 8.89352 7.66656 8.86965 7.70639 8.85365C7.74627 8.8377 7.78942 8.83007 7.83236 8.83119ZM6.32162 1.18666C10.3007 0.840786 14.3025 0.840767 18.2816 1.18666L20.1888 1.35365C21.0759 1.43088 21.912 1.80447 22.5609 2.41419C23.2097 3.0239 23.6347 3.83451 23.7669 4.71498C24.3399 8.52643 24.34 12.4025 23.7669 16.214C23.7164 16.5474 23.6247 16.8668 23.4984 17.1661C23.415 17.3645 23.1576 17.3947 23.0111 17.2355L17.4242 11.09C17.3007 10.9542 17.1407 10.8571 16.9632 10.8107C16.7857 10.7643 16.5983 10.7703 16.4242 10.8283L13.2259 11.8947L8.58724 6.67591C8.50144 6.57938 8.39666 6.50106 8.27963 6.44642C8.16267 6.39183 8.03559 6.36234 7.90658 6.35853C7.77748 6.35474 7.64868 6.37726 7.52865 6.42494C7.40865 6.47262 7.29963 6.54455 7.20834 6.63587L0.999354 12.8449C0.9572 12.8882 0.903074 12.9186 0.844081 12.9318C0.785038 12.9449 0.722954 12.9404 0.666346 12.9191C0.609837 12.8977 0.56037 12.8604 0.524745 12.8117C0.489106 12.7628 0.469234 12.7041 0.466151 12.6437C0.316761 9.99481 0.439628 7.33756 0.834315 4.714C0.966572 3.83361 1.39164 3.0229 2.04037 2.41322C2.68929 1.8035 3.52537 1.4299 4.41244 1.35267L6.32162 1.18666ZM16.723 4.77845C16.2204 4.77852 15.7385 4.97782 15.3831 5.33314C15.0277 5.6886 14.8275 6.17127 14.8275 6.67396C14.8276 7.17648 15.0278 7.65846 15.3831 8.0138C15.7385 8.36913 16.2204 8.56843 16.723 8.56849C17.2257 8.56849 17.7084 8.36926 18.0638 8.0138C18.4191 7.65847 18.6184 7.17642 18.6185 6.67396C18.6185 6.17133 18.4192 5.68858 18.0638 5.33314C17.7084 4.97768 17.2257 4.77845 16.723 4.77845Z" fill="#C7C7C7"/>
</svg>
