<svg width="32" height="32" viewBox="0 0 32 32" fill="none" xmlns="http://www.w3.org/2000/svg">
<rect width="32" height="32" rx="4.8" fill="url(#paint0_linear_3314_6)"/>
<rect width="32" height="32" rx="4.8" fill="white"/>
<path d="M21.6667 19L20.5117 21.5208L18 22.6667L20.5117 23.8217L21.6667 26.3333L22.8125 23.8217L25.3333 22.6667L22.8125 21.5208L21.6667 19Z" fill="black" fill-opacity="0.2"/>
<path d="M24.3333 16L23.9133 16.9167L23 17.3333L23.9133 17.7533L24.3333 18.6667L24.75 17.7533L25.6667 17.3333L24.75 16.9167L24.3333 16Z" fill="#CCCCCC"/>
<path d="M22.8333 14L22.5708 14.5729L22 14.8333L22.5708 15.0958L22.8333 15.6667L23.0938 15.0958L23.6667 14.8333L23.0938 14.5729L22.8333 14Z" fill="#CCCCCC"/>
<path d="M15.9999 25.1666C16.3276 25.1666 16.6552 25.1483 16.9747 25.1117C17.5206 25.0491 17.7355 24.4399 17.4803 23.9532C17.2876 23.5858 16.8685 23.3143 16.4539 23.328C16.2959 23.3333 16.1411 23.3333 15.9999 23.3333C11.9666 23.3333 8.66659 20.0333 8.66659 15.9999C8.66659 11.9666 11.9666 8.66659 15.9999 8.66659C16.5294 8.66659 17.0111 8.71437 17.4795 8.80994C17.814 8.87819 18.1663 8.79187 18.4077 8.55046C18.9019 8.05632 18.7014 7.216 18.0187 7.06691C17.3571 6.92242 16.6785 6.83325 15.9999 6.83325C10.9583 6.83325 6.83325 10.9583 6.83325 15.9999C6.83325 21.0416 10.9583 25.1666 15.9999 25.1666ZM11.5999 16.1833C11.2455 15.8289 11.2455 15.2543 11.5999 14.8999C11.9543 14.5455 12.5289 14.5455 12.8833 14.8999L15.0833 17.0999L22.3249 9.85825C22.6793 9.50387 23.2539 9.50387 23.6083 9.85825C23.9626 10.2126 23.9626 10.7872 23.6083 11.1416L15.8471 18.9027C15.4253 19.3246 14.7412 19.3246 14.3194 18.9027L11.5999 16.1833ZM22.4166 17.8333L21.2616 20.3541L18.7499 21.4999L21.2616 22.6549L22.4166 25.1666L23.5624 22.6549L26.0833 21.4999L23.5624 20.3541L22.4166 17.8333Z" fill="black"/>
<path d="M15.9999 25.1666C16.3276 25.1666 16.6552 25.1483 16.9747 25.1117C17.5206 25.0491 17.7355 24.4399 17.4803 23.9532C17.2876 23.5858 16.8685 23.3143 16.4539 23.328C16.2959 23.3333 16.1411 23.3333 15.9999 23.3333C11.9666 23.3333 8.66659 20.0333 8.66659 15.9999C8.66659 11.9666 11.9666 8.66659 15.9999 8.66659C16.5294 8.66659 17.0111 8.71437 17.4795 8.80994C17.814 8.87819 18.1663 8.79187 18.4077 8.55046C18.9019 8.05632 18.7014 7.216 18.0187 7.06691C17.3571 6.92242 16.6785 6.83325 15.9999 6.83325C10.9583 6.83325 6.83325 10.9583 6.83325 15.9999C6.83325 21.0416 10.9583 25.1666 15.9999 25.1666ZM11.5999 16.1833C11.2455 15.8289 11.2455 15.2543 11.5999 14.8999C11.9543 14.5455 12.5289 14.5455 12.8833 14.8999L15.0833 17.0999L22.3249 9.85825C22.6793 9.50387 23.2539 9.50387 23.6083 9.85825C23.9626 10.2126 23.9626 10.7872 23.6083 11.1416L15.8471 18.9027C15.4253 19.3246 14.7412 19.3246 14.3194 18.9027L11.5999 16.1833ZM22.4166 17.8333L21.2616 20.3541L18.7499 21.4999L21.2616 22.6549L22.4166 25.1666L23.5624 22.6549L26.0833 21.4999L23.5624 20.3541L22.4166 17.8333Z" fill="url(#paint1_linear_3314_6)"/>
<path d="M15.9999 25.1666C16.3276 25.1666 16.6552 25.1483 16.9747 25.1117C17.5206 25.0491 17.7355 24.4399 17.4803 23.9532C17.2876 23.5858 16.8685 23.3143 16.4539 23.328C16.2959 23.3333 16.1411 23.3333 15.9999 23.3333C11.9666 23.3333 8.66659 20.0333 8.66659 15.9999C8.66659 11.9666 11.9666 8.66659 15.9999 8.66659C16.5294 8.66659 17.0111 8.71437 17.4795 8.80994C17.814 8.87819 18.1663 8.79187 18.4077 8.55046C18.9019 8.05632 18.7014 7.216 18.0187 7.06691C17.3571 6.92242 16.6785 6.83325 15.9999 6.83325C10.9583 6.83325 6.83325 10.9583 6.83325 15.9999C6.83325 21.0416 10.9583 25.1666 15.9999 25.1666ZM11.5999 16.1833C11.2455 15.8289 11.2455 15.2543 11.5999 14.8999C11.9543 14.5455 12.5289 14.5455 12.8833 14.8999L15.0833 17.0999L22.3249 9.85825C22.6793 9.50387 23.2539 9.50387 23.6083 9.85825C23.9626 10.2126 23.9626 10.7872 23.6083 11.1416L15.8471 18.9027C15.4253 19.3246 14.7412 19.3246 14.3194 18.9027L11.5999 16.1833ZM22.4166 17.8333L21.2616 20.3541L18.7499 21.4999L21.2616 22.6549L22.4166 25.1666L23.5624 22.6549L26.0833 21.4999L23.5624 20.3541L22.4166 17.8333Z" fill="url(#paint2_linear_3314_6)"/>
<defs>
<linearGradient id="paint0_linear_3314_6" x1="16" y1="0" x2="16" y2="32" gradientUnits="userSpaceOnUse">
<stop stop-color="#A6D4F5"/>
<stop offset="1" stop-color="#D4BAF7"/>
</linearGradient>
<linearGradient id="paint1_linear_3314_6" x1="16.7009" y1="10.3253" x2="16.7009" y2="21.0198" gradientUnits="userSpaceOnUse">
<stop stop-color="#8FBFEB"/>
<stop offset="1" stop-color="#207CD1"/>
</linearGradient>
<linearGradient id="paint2_linear_3314_6" x1="25.9004" y1="25.3493" x2="7.20083" y2="7.19917" gradientUnits="userSpaceOnUse">
<stop stop-color="#FF3485"/>
<stop offset="1" stop-color="#3F6FFF"/>
</linearGradient>
</defs>
</svg>
